# xmcd CD database file
#
# Track frame offsets:
#	150
#	23097
#	44495
#	64162
#	80773
#	97875
#	121514
#	139432
#	159265
#	183400
#	197985
#	219795
#	242495
#	261870
#
# Disc length: 3684 seconds
#
# Revision: 0
# Processed by: cddbd v1.5.2PL0 Copyright (c) Steve Scherf et al.
# Submitted via: CDex 1.51
#
DISCID=bb0e620e
DTITLE=Tonus Duo: Felix Behrendt, Daniel Stickan - D
DYEAR=2006
DGENRE=Jazz
TTITLE0=Abendlied
TTITLE1=Denkmal
TTITLE2=Träumerei
TTITLE3=Irgendwo auf der Welt gibt´s ein kleines bisschen Glück
TTITLE4=Weine nicht, weine nicht, musst nicht traurig sein
TTITLE5=Nun danket alle Gott
TTITLE6=Nationalhymne
TTITLE7=Guten Abend, gute Nacht
TTITLE8=Der Mond ist aufgegangen
TTITLE9=Erquicke micht mit deinem Licht
TTITLE10=Land unter
TTITLE11=Für mich soll´s rote Rosen regnen
TTITLE12=Weißt du wieviel Sternlein stehen
TTITLE13=Horizont
EXTD=YEAR: 2006
EXTT0=
EXTT1=
EXTT2=
EXTT3=
EXTT4=
EXTT5=
EXTT6=
EXTT7=
EXTT8=
EXTT9=
EXTT10=
EXTT11=
EXTT12=
EXTT13=
PLAYORDER=
